<mxfile host="Electron" agent="Mozilla/5.0 (Windows NT 10.0; Win64; x64) AppleWebKit/537.36 (KHTML, like Gecko) draw.io/24.7.8 Chrome/128.0.6613.36 Electron/32.0.1 Safari/537.36" version="24.7.8">
  <diagram name="Page-1" id="P6XRNpND42LDgdSgK25S">
    <mxGraphModel dx="1290" dy="621" grid="1" gridSize="10" guides="1" tooltips="1" connect="1" arrows="1" fold="1" page="1" pageScale="1" pageWidth="850" pageHeight="1100" math="0" shadow="0">
      <root>
        <mxCell id="0" />
        <mxCell id="1" parent="0" />
        <mxCell id="4p0FO8ftXzeDO7DZXpev-1" value="User" style="shape=umlActor;verticalLabelPosition=bottom;verticalAlign=top;html=1;" vertex="1" parent="1">
          <mxGeometry x="130" y="240" width="30" height="60" as="geometry" />
        </mxCell>
        <mxCell id="4p0FO8ftXzeDO7DZXpev-2" value="" style="verticalLabelPosition=bottom;verticalAlign=top;html=1;shape=mxgraph.basic.rect;fillColor2=none;strokeWidth=1;size=20;indent=5;" vertex="1" parent="1">
          <mxGeometry x="180" y="105" width="395" height="330" as="geometry" />
        </mxCell>
        <mxCell id="4p0FO8ftXzeDO7DZXpev-3" value="Login/ Logout" style="ellipse;whiteSpace=wrap;html=1;" vertex="1" parent="1">
          <mxGeometry x="200" y="255" width="90" height="30" as="geometry" />
        </mxCell>
        <mxCell id="4p0FO8ftXzeDO7DZXpev-4" value="Fund Transfer" style="ellipse;whiteSpace=wrap;html=1;" vertex="1" parent="1">
          <mxGeometry x="320" y="255" width="100" height="30" as="geometry" />
        </mxCell>
        <mxCell id="4p0FO8ftXzeDO7DZXpev-5" value="Bill Payment" style="ellipse;whiteSpace=wrap;html=1;" vertex="1" parent="1">
          <mxGeometry x="320" y="300" width="115" height="30" as="geometry" />
        </mxCell>
      </root>
    </mxGraphModel>
  </diagram>
</mxfile>
